<?xml version="1.0" encoding="UTF-8" standalone="no"?>
<!-- Created with Inkscape (http://www.inkscape.org/) -->

<svg
   xmlns:dc="http://purl.org/dc/elements/1.1/"
   xmlns:cc="http://creativecommons.org/ns#"
   xmlns:rdf="http://www.w3.org/1999/02/22-rdf-syntax-ns#"
   xmlns:svg="http://www.w3.org/2000/svg"
   xmlns="http://www.w3.org/2000/svg"
   xmlns:xlink="http://www.w3.org/1999/xlink"
   xmlns:sodipodi="http://sodipodi.sourceforge.net/DTD/sodipodi-0.dtd"
   xmlns:inkscape="http://www.inkscape.org/namespaces/inkscape"
   width="115mm"
   height="115mm"
   id="svg2"
   sodipodi:version="0.32"
   inkscape:version="0.92.3 (2405546, 2018-03-11)"
   sodipodi:docname="anim.svg"
   inkscape:export-filename="/home/san/prog/ocaml/oplot/dune-version/share/images/anim_icon192.png"
   inkscape:export-xdpi="42.41"
   inkscape:export-ydpi="42.41"
   version="1.1">
  <defs
     id="defs4">
    <linearGradient
       id="linearGradient1900">
      <stop
         style="stop-color:#ffd5d5;stop-opacity:1;"
         offset="0"
         id="stop1902" />
      <stop
         id="stop3682"
         offset="0.86792451"
         style="stop-color:#ffefed;stop-opacity:1;" />
      <stop
         style="stop-color:white;stop-opacity:0.78688526;"
         offset="1"
         id="stop1904" />
    </linearGradient>
    <linearGradient
       id="linearGradient1975">
      <stop
         style="stop-color:black;stop-opacity:1;"
         offset="0"
         id="stop1977" />
      <stop
         id="stop1983"
         offset="0.5"
         style="stop-color:#ffe6ef;stop-opacity:1;" />
      <stop
         style="stop-color:black;stop-opacity:1;"
         offset="1"
         id="stop1979" />
    </linearGradient>
    <linearGradient
       id="linearGradient2945">
      <stop
         style="stop-color:black;stop-opacity:1;"
         offset="0"
         id="stop2947" />
      <stop
         id="stop2953"
         offset="0.5"
         style="stop-color:#ffdcff;stop-opacity:1;" />
      <stop
         style="stop-color:black;stop-opacity:1;"
         offset="1"
         id="stop2949" />
    </linearGradient>
    <linearGradient
       id="linearGradient2925">
      <stop
         id="stop2943"
         offset="0"
         style="stop-color:#d66086;stop-opacity:0.89344263;" />
      <stop
         id="stop2937"
         offset="1"
         style="stop-color:#00c100;stop-opacity:0.49803922;" />
    </linearGradient>
    <linearGradient
       inkscape:collect="always"
       xlink:href="#linearGradient2945"
       id="linearGradient2951"
       x1="161.16846"
       y1="510.93396"
       x2="161.16846"
       y2="399.63577"
       gradientUnits="userSpaceOnUse"
       gradientTransform="matrix(1.004328,0,0,0.125651,5.899946,313.7235)" />
    <linearGradient
       inkscape:collect="always"
       xlink:href="#linearGradient2945"
       id="linearGradient1947"
       gradientUnits="userSpaceOnUse"
       gradientTransform="matrix(2.367274,0,0,0.123919,-99.331531,314.13099)"
       x1="161.16846"
       y1="510.93396"
       x2="161.16846"
       y2="399.63577" />
    <linearGradient
       inkscape:collect="always"
       xlink:href="#linearGradient2945"
       id="linearGradient1955"
       gradientUnits="userSpaceOnUse"
       gradientTransform="matrix(1.004328,0,0,0.125651,-667.5749,222.7171)"
       x1="161.16846"
       y1="510.93396"
       x2="161.16846"
       y2="399.63577" />
    <linearGradient
       inkscape:collect="always"
       xlink:href="#linearGradient2945"
       id="linearGradient1963"
       gradientUnits="userSpaceOnUse"
       gradientTransform="matrix(2.669523,0,0,0.123614,-808.3685,223.6445)"
       x1="161.16846"
       y1="510.93396"
       x2="161.16846"
       y2="399.63577" />
    <linearGradient
       inkscape:collect="always"
       xlink:href="#linearGradient1975"
       id="linearGradient1981"
       x1="427.89755"
       y1="287.41507"
       x2="427.89755"
       y2="164.21208"
       gradientUnits="userSpaceOnUse" />
    <linearGradient
       inkscape:collect="always"
       xlink:href="#linearGradient1975"
       id="linearGradient1987"
       gradientUnits="userSpaceOnUse"
       x1="427.89755"
       y1="287.41507"
       x2="427.89755"
       y2="164.21208" />
    <radialGradient
       inkscape:collect="always"
       xlink:href="#linearGradient1900"
       id="radialGradient2795"
       cx="281.80917"
       cy="361.97681"
       fx="281.80917"
       fy="361.97681"
       r="193.72615"
       gradientTransform="matrix(0.939106,0,0,1.0317045,32.629649,-8.0880032)"
       gradientUnits="userSpaceOnUse" />
    <linearGradient
       inkscape:collect="always"
       xlink:href="#linearGradient2945"
       id="linearGradient1905"
       gradientUnits="userSpaceOnUse"
       gradientTransform="matrix(2.558492,0,0,0.123724,-781.60999,233.87997)"
       x1="161.16846"
       y1="510.93396"
       x2="161.16846"
       y2="399.63577" />
  </defs>
  <sodipodi:namedview
     id="base"
     pagecolor="#ffffff"
     bordercolor="#666666"
     borderopacity="1.0"
     inkscape:pageopacity="0.0"
     inkscape:pageshadow="2"
     inkscape:zoom="1.0610016"
     inkscape:cx="221.10233"
     inkscape:cy="181.08658"
     inkscape:document-units="px"
     inkscape:current-layer="layer1"
     inkscape:window-width="3200"
     inkscape:window-height="1669"
     inkscape:window-x="0"
     inkscape:window-y="1200"
     showgrid="false"
     fit-margin-top="0"
     fit-margin-left="0"
     fit-margin-right="0"
     fit-margin-bottom="0"
     inkscape:window-maximized="1" />
  <metadata
     id="metadata7">
    <rdf:RDF>
      <cc:Work
         rdf:about="">
        <dc:format>image/svg+xml</dc:format>
        <dc:type
           rdf:resource="http://purl.org/dc/dcmitype/StillImage" />
        <dc:title></dc:title>
      </cc:Work>
    </rdf:RDF>
  </metadata>
  <g
     inkscape:groupmode="layer"
     id="layer2"
     style="display:inline"
     transform="translate(-90.910546,-130.96923)" />
  <g
     inkscape:label="Calque 1"
     inkscape:groupmode="layer"
     id="layer1"
     style="display:inline"
     transform="translate(-90.910546,-130.96923)">
    <ellipse
       ry="199.3557"
       rx="181.4481"
       cy="365.36526"
       cx="297.27832"
       style="display:inline;opacity:1;fill:url(#radialGradient2795);fill-opacity:1;fill-rule:evenodd;stroke:#ffffff;stroke-width:0.99334091;stroke-linecap:butt;stroke-miterlimit:4;stroke-dasharray:none;stroke-opacity:1"
       id="path1901"
       inkscape:transform-center-x="-6.5975395"
       inkscape:transform-center-y="-5.6550339" />
    <rect
       ry="0.58397108"
       y="363.71674"
       x="101.47359"
       height="13.664922"
       width="361.44949"
       id="rect1945"
       style="display:inline;opacity:1;fill:url(#linearGradient1947);fill-opacity:1;fill-rule:evenodd;stroke:#ffffff;stroke-width:0.55515832;stroke-linecap:butt;stroke-miterlimit:4;stroke-dasharray:none;stroke-opacity:1" />
    <path
       sodipodi:type="star"
       style="display:inline;opacity:1;fill:url(#linearGradient1987);fill-opacity:1;fill-rule:evenodd;stroke:#ffffff;stroke-width:1.02499998;stroke-linecap:butt;stroke-miterlimit:4;stroke-dasharray:none;stroke-opacity:1"
       id="path1985"
       sodipodi:sides="3"
       sodipodi:cx="437.32263"
       sodipodi:cy="225.78473"
       sodipodi:r1="28.290873"
       sodipodi:r2="14.145437"
       sodipodi:arg1="-3.1415927"
       sodipodi:arg2="-2.0943951"
       inkscape:flatsided="true"
       inkscape:rounded="1.77"
       inkscape:randomized="0"
       d="m 409.03176,225.78473 c 0,-86.73217 -32.67596,-67.8667 42.43631,-24.50062 75.11227,43.36609 75.11226,5.63514 0,49.00123 -75.11227,43.36609 -42.43631,62.23157 -42.43631,-24.50061 z"
       transform="matrix(0.596009,0,0,0.294833,212.31057,303.98039)" />
    <rect
       inkscape:transform-center-x="91.87661"
       inkscape:transform-center-y="-195.78666"
       transform="rotate(-90)"
       ry="0.58305091"
       y="283.38791"
       x="-564.58453"
       height="13.643392"
       width="390.64566"
       id="rect1957"
       style="display:inline;opacity:1;fill:url(#linearGradient1905);fill-opacity:1;fill-rule:evenodd;stroke:#ffffff;stroke-width:0.5766896;stroke-linecap:butt;stroke-miterlimit:4;stroke-dasharray:none;stroke-opacity:1" />
    <path
       sodipodi:type="star"
       style="display:inline;opacity:1;fill:url(#linearGradient1981);fill-opacity:1;fill-rule:evenodd;stroke:#ffffff;stroke-width:1.02499998;stroke-linecap:butt;stroke-miterlimit:4;stroke-dasharray:none;stroke-opacity:1"
       id="path1973"
       sodipodi:sides="3"
       sodipodi:cx="437.32263"
       sodipodi:cy="225.78473"
       sodipodi:r1="28.290873"
       sodipodi:r2="14.145437"
       sodipodi:arg1="-3.1415927"
       sodipodi:arg2="-2.0943951"
       inkscape:flatsided="true"
       inkscape:rounded="1.77"
       inkscape:randomized="0"
       d="m 409.03176,225.78473 c 0,-86.73217 -32.67596,-67.8667 42.43631,-24.50062 75.11227,43.36609 75.11226,5.63514 0,49.00123 -75.11227,43.36609 -42.43631,62.23157 -42.43631,-24.50061 z"
       transform="matrix(0,-0.596009,0.294833,0,224.23367,434.31079)" />
    <polyline
       id="polyline1949"
       style="fill:none;stroke:#0000ff;stroke-width:48;stroke-linecap:butt;stroke-linejoin:miter;stroke-opacity:0.29023746"
       points="0,302 11,284 24,265 36,247 49,229 61,212 74,194 87,177 99,160 112,144 124,129 137,114 150,99 162,87 174,74 186,61 199,51 212,41 224,32 237,25 249,17 262,12 275,7 287,4 300,1 312,0 325,0 338,0 349,2 362,5 374,9 387,14 399,20 412,28 425,36 437,46 450,56 462,68 475,79 488,93 500,107 513,121 524,136 537,152 550,169 562,185 575,202 587,220 600,238 613,256 625,275 638,293 650,311 663,330 676,348 688,367 700,385 712,402 725,419 738,436 750,453 763,469 775,483 788,498 801,512 813,524 826,537 838,549 851,558 864,567 875,576 888,584 900,591 913,596 925,600 938,603 951,604 963,605 976,605 988,604 1001,601 1014,598 1026,593 1039,587 1050,580 1063,573 1076,563 1088,554 1101,542 1113,531 1126,518 1139,504 1151,491 1164,476 1176,460 1189,445 1202,428 1214,411 1226,393 1238,375 1251,358 1264,340 1276,321 "
       transform="matrix(0.245209,0,0,0.361204,134.23748,268.82497)" />
    <polyline
       id="polyline1949-8"
       style="display:inline;fill:none;stroke:#0000ff;stroke-width:48;stroke-linecap:butt;stroke-linejoin:miter;stroke-opacity:0.09630607"
       points="0,302 11,284 24,265 36,247 49,229 61,212 74,194 87,177 99,160 112,144 124,129 137,114 150,99 162,87 174,74 186,61 199,51 212,41 224,32 237,25 249,17 262,12 275,7 287,4 300,1 312,0 325,0 338,0 349,2 362,5 374,9 387,14 399,20 412,28 425,36 437,46 450,56 462,68 475,79 488,93 500,107 513,121 524,136 537,152 550,169 562,185 575,202 587,220 600,238 613,256 625,275 638,293 650,311 663,330 676,348 688,367 700,385 712,402 725,419 738,436 750,453 763,469 775,483 788,498 801,512 813,524 826,537 838,549 851,558 864,567 875,576 888,584 900,591 913,596 925,600 938,603 951,604 963,605 976,605 988,604 1001,601 1014,598 1026,593 1039,587 1050,580 1063,573 1076,563 1088,554 1101,542 1113,531 1126,518 1139,504 1151,491 1164,476 1176,460 1189,445 1202,428 1214,411 1226,393 1238,375 1251,358 1264,340 1276,321 "
       transform="matrix(0.245209,0,0,0.361204,97.203046,266.43764)" />
    <polyline
       id="polyline1949-7"
       style="display:inline;fill:none;stroke:#0000ff;stroke-width:48;stroke-linecap:butt;stroke-linejoin:miter"
       points="0,302 11,284 24,265 36,247 49,229 61,212 74,194 87,177 99,160 112,144 124,129 137,114 150,99 162,87 174,74 186,61 199,51 212,41 224,32 237,25 249,17 262,12 275,7 287,4 300,1 312,0 325,0 338,0 349,2 362,5 374,9 387,14 399,20 412,28 425,36 437,46 450,56 462,68 475,79 488,93 500,107 513,121 524,136 537,152 550,169 562,185 575,202 587,220 600,238 613,256 625,275 638,293 650,311 663,330 676,348 688,367 700,385 712,402 725,419 738,436 750,453 763,469 775,483 788,498 801,512 813,524 826,537 838,549 851,558 864,567 875,576 888,584 900,591 913,596 925,600 938,603 951,604 963,605 976,605 988,604 1001,601 1014,598 1026,593 1039,587 1050,580 1063,573 1076,563 1088,554 1101,542 1113,531 1126,518 1139,504 1151,491 1164,476 1176,460 1189,445 1202,428 1214,411 1226,393 1238,375 1251,358 1264,340 1276,321 "
       transform="matrix(0.245209,0,0,0.361204,209.48671,271.74296)" />
    <polyline
       id="polyline1949-9"
       style="display:inline;fill:none;stroke:#0000ff;stroke-width:48;stroke-linecap:butt;stroke-linejoin:miter;stroke-opacity:0.47889182"
       points="0,302 11,284 24,265 36,247 49,229 61,212 74,194 87,177 99,160 112,144 124,129 137,114 150,99 162,87 174,74 186,61 199,51 212,41 224,32 237,25 249,17 262,12 275,7 287,4 300,1 312,0 325,0 338,0 349,2 362,5 374,9 387,14 399,20 412,28 425,36 437,46 450,56 462,68 475,79 488,93 500,107 513,121 524,136 537,152 550,169 562,185 575,202 587,220 600,238 613,256 625,275 638,293 650,311 663,330 676,348 688,367 700,385 712,402 725,419 738,436 750,453 763,469 775,483 788,498 801,512 813,524 826,537 838,549 851,558 864,567 875,576 888,584 900,591 913,596 925,600 938,603 951,604 963,605 976,605 988,604 1001,601 1014,598 1026,593 1039,587 1050,580 1063,573 1076,563 1088,554 1101,542 1113,531 1126,518 1139,504 1151,491 1164,476 1176,460 1189,445 1202,428 1214,411 1226,393 1238,375 1251,358 1264,340 1276,321 "
       transform="matrix(0.245209,0,0,0.361204,171.5019,270.89632)" />
  </g>
  <g
     inkscape:groupmode="layer"
     id="layer3"
     style="display:inline"
     transform="translate(-90.910546,-130.96923)" />
</svg>
