/* XPM */
static char *goplot[] = {
/* columns rows colors chars-per-pixel */
"60 64 257 2",
"   c #303E28",
".  c #37472A",
"X  c #3D4E30",
"o  c #3C6130",
"O  c #435D35",
"+  c #434D3B",
"@  c #43642B",
"#  c #4D6B3D",
"$  c #486334",
"%  c #4A7B28",
"&  c #4B7533",
"*  c #537D3D",
"=  c #51733E",
"-  c #516C3C",
";  c #4F6340",
":  c #536844",
">  c #5A7B44",
",  c #5B7D45",
"<  c #4F7642",
"1  c #63714B",
"2  c #766D70",
"3  c #7C7178",
"4  c #767E64",
"5  c #4F504D",
"6  c #558937",
"7  c #5C9B3C",
"8  c #5A9439",
"9  c #55952C",
"0  c #5DAB30",
"q  c #61A43A",
"w  c #65AD3E",
"e  c #68BC3A",
"r  c #70BE3D",
"t  c #5C8840",
"y  c #638A49",
"u  c #639C44",
"i  c #659D4C",
"p  c #669648",
"a  c #6A9851",
"s  c #708D51",
"d  c #719C57",
"f  c #6A8F51",
"g  c #7F8170",
"h  c #64A444",
"j  c #6DA44A",
"k  c #6BAA4A",
"l  c #6AA541",
"z  c #6DB545",
"x  c #6AB845",
"c  c #77A956",
"v  c #74BA4B",
"b  c #74B846",
"n  c #78B755",
"m  c #7DA265",
"M  c #72C63C",
"N  c #79C24C",
"B  c #75C746",
"V  c #7BC454",
"C  c #7DD149",
"Z  c #7CD251",
"A  c #6AC340",
"S  c #857983",
"D  c #887B86",
"F  c #8B7B8A",
"G  c #827581",
"H  c #88967C",
"J  c #949A7C",
"K  c #85BB59",
"L  c #84B554",
"P  c #89A378",
"I  c #86BE6B",
"U  c #89B768",
"Y  c #92B26F",
"T  c #84CA4E",
"R  c #84CB55",
"E  c #8BCB5A",
"W  c #84C758",
"Q  c #83D24D",
"!  c #89D64B",
"~  c #85D153",
"^  c #8CDB5A",
"/  c #8AD557",
"(  c #95D759",
")  c #94CF55",
"_  c #8DCC63",
"`  c #8AC864",
"'  c #8DD661",
"]  c #95CD64",
"[  c #98CA66",
"{  c #9ACB78",
"}  c #96C776",
"|  c #93D363",
" . c #93D26A",
".. c #95D962",
"X. c #9BD565",
"o. c #9BD46B",
"O. c #99DA63",
"+. c #9CD374",
"@. c #9DD777",
"#. c #8EC971",
"$. c #A6CA7A",
"%. c #A1D36A",
"&. c #A5D76A",
"*. c #A3D475",
"=. c #A3D27C",
"-. c #A5D972",
";. c #A5D97C",
":. c #A9D37C",
">. c #ABD973",
",. c #ABDA7C",
"<. c #AAD474",
"1. c #B2D67B",
"2. c #B1DA7E",
"3. c #A3E06E",
"4. c #AFE07D",
"5. c #B1E67E",
"6. c #948094",
"7. c #9B8A9B",
"8. c #969A89",
"9. c #9C9296",
"0. c #898A85",
"q. c #97AA88",
"w. c #99B88C",
"e. c #9EB892",
"r. c #A29998",
"t. c #A79EA1",
"y. c #A9A398",
"u. c #A1BA8C",
"i. c #A6B693",
"p. c #ADA6A4",
"a. c #B2AAA8",
"s. c #B9A8B3",
"d. c #B8B2AB",
"f. c #B9B4B4",
"g. c #9EC686",
"h. c #9ED780",
"j. c #A8C989",
"k. c #ACC596",
"l. c #A4DB82",
"z. c #ADD483",
"x. c #ADD58A",
"c. c #ADD983",
"v. c #ADDC8B",
"b. c #A6D386",
"n. c #ABD996",
"m. c #B2D483",
"M. c #B2D48A",
"N. c #B1DA83",
"B. c #B3DA8A",
"V. c #BADC86",
"C. c #BCDB8C",
"Z. c #BAD687",
"A. c #BAD493",
"S. c #BCD69A",
"D. c #BCDA94",
"F. c #BCDB9A",
"G. c #B1D592",
"H. c #B1CBA4",
"J. c #BCC2B4",
"K. c #BBD5A3",
"L. c #BBD5AE",
"P. c #BBDCA6",
"I. c #B4CFAC",
"U. c #AFE48F",
"Y. c #B7E18B",
"T. c #BDE293",
"R. c #B6E594",
"E. c #BEE2A6",
"W. c #CABAB8",
"Q. c #C4BCAF",
"!. c #CDB9C0",
"~. c #D1BDC4",
"^. c #C5DF8E",
"/. c #C2D69C",
"(. c #C2DB9C",
"). c #C2D893",
"_. c #C5C5B4",
"`. c #C4D4AC",
"'. c #C3DBA3",
"]. c #C4DBA9",
"[. c #CADAA6",
"{. c #CADAAB",
"}. c #C5D5A5",
"|. c #C4DBB5",
" X c #CBD5BC",
".X c #CCDBB3",
"XX c #CBDABA",
"oX c #C7D6B3",
"OX c #D5CDBD",
"+X c #D0DCAB",
"@X c #D1DBB5",
"#X c #D3DBBB",
"$X c #D0D5BA",
"%X c #C0E09D",
"&X c #CBE1AC",
"*X c #CDE0B4",
"=X c #CBE4B8",
"-X c #D1E3B2",
";X c #D3E0BC",
":X c #C9C7C5",
">X c #CEDDC1",
",X c #CBD3C4",
"<X c #D5C4CB",
"1X c #D5CBCB",
"2X c #DCCDD2",
"3X c #D4D4C2",
"4X c #D4DCC4",
"5X c #D5DCCB",
"6X c #D8DCCB",
"7X c #D7DAC5",
"8X c #D4DBD0",
"9X c #DADDD3",
"0X c #DCDDDB",
"qX c #D7D3D4",
"wX c #DDDEE0",
"eX c #D4E0C2",
"rX c #D9E2C5",
"tX c #DAE1CC",
"yX c #DBE8CA",
"uX c #D6E4CB",
"iX c #DCE0D4",
"pX c #DDE0DB",
"aX c #DFE8D1",
"sX c #C9E3C2",
"dX c #DEE0E1",
"fX c #E1D4CB",
"gX c #E2DEDB",
"hX c #EBDBD9",
"jX c #E4DCD5",
"kX c #F8DDDC",
"lX c #F7DEDD",
"zX c #E4E0CF",
"xX c #E1E3DB",
"cX c #EBE1DC",
"vX c #E5E7D6",
"bX c #F3E2DD",
"nX c #F2E9DD",
"mX c #FCE0DE",
"MX c #E1F1D9",
"NX c #E2E3E2",
"BX c #EBE2E3",
"VX c #EBE9E3",
"CX c #EEECEC",
"ZX c #E7E8E1",
"AX c #F4E4E2",
"SX c #F4E9E5",
"DX c #F4EBEA",
"FX c #FEE5E4",
"GX c #FEE8E6",
"HX c #FEECEA",
"JX c #FEF0EE",
"KX c #F0F3EA",
"LX c #FEF4F2",
"PX c #FFF8F7",
"IX c #FFFEFE",
"UX c #F4F2F2",
"YX c None",
/* pixels */
"YXYXYXYXYXYXYXYXYXYXYXYXYXYXYXYXYXYXYXYXYXYXYXYXYXYXBXNXYXYXYXYXYXYXYXYXYXYXYXYXYXYXYXYXYXYXYXYXYXYXYXYXYXYXYXYXYXYXYXYX",
"YXYXYXYXYXYXYXYXYXYXYXYXYXYXYXYXYXYXYXYXYXYXYXYXYXYX2X2XYXYXYXYXYXYXYXYXYXYXYXYXYXYXYXYXYXYXYXYXYXYXYXYXYXYXYXYXYXYXYXYX",
"YXYXYXYXYXYXYXYXYXYXYXYXYXYXYXYXYXYXYXYXYXYXYXYXYXYX<X<XYXYXYXYXYXYXYXYXYXYXYXYXYXYXYXYXYXYXYXYXYXYXYXYXYXYXYXYXYXYXYXYX",
"YXYXYXYXYXYXYXYXYXYXYXYXYXYXYXYXYXYXYXYXYXYXYXYXYXYX<X<XYXYXYXYXYXYXYXYXYXYXYXYXYXYXYXYXYXYXYXYXYXYXYXYXYXYXYXYXYXYXYXYX",
"YXYXYXYXYXYXYXYXYXYXYXYXYXYXYXYXYXYXYXYXYXYXYXYXYXNX~.~.UXIXYXYXYXYXYXYXYXYXYXYXYXYXYXYXYXYXYXYXYXYXYXYXYXYXYXYXYXYXYXYX",
"YXYXYXYXYXYXYXYXYXYXYXYXYXYXYXYXYXYXYXYXYXIXIXIXIX1X!.!.qXIXIXIXIXIXIXYXYXYXYXYXYXYXYXYXYXYXYXYXYXYXYXYXYXYXYXYXYXYXYXYX",
"YXYXYXYXYXYXYXYXYXYXYXYXYXYXYXYXYXYXIXIXIXIXIXIXIXr.!.!.t.IXPXIXIXIXIXIXIXIXYXYXYXYXYXYXYXYXYXYXYXYXYXYXYXYXYXYXYXYXYXYX",
"YXYXYXYXYXYXYXYXYXYXYXYXYXYXYXYXIXIXIXIXIXPXPXPXBX2 !.!.2 VXLXLXLXLXPXPXIXIXIXIXYXYXYXYXYXYXYXYXYXYXYXYXYXYXYXYXYXYXYXYX",
"YXYXYXYXYXYXYXYXYXYXYXYXYXYXIXIXIXPXIXPXPXLXLXLXW.t.s.a.p.f.HXLXLXLXLXLXLXPXPXIXIXIXYXYXYXYXYXYXYXYXYXYXYXYXYXYXYXYXYXYX",
"YXYXYXYXYXYXYXYXYXYXYXYXYXIXIXIXIXPXLXLXLXLXLXHXHXBXF D HXHXHXHXHXLXHXLXLXLXPXPXIXIXIXYXYXYXYXYXYXYXYXYXYXYXYXYXYXYXYXYX",
"YXYXYXYXYXYXYXYXYXYXYXYXIXIXIXPXLXLXLXLXHXHXHXLXHXhX6.D HXHXHXHXHXLXHXHXLXLXLXLXPXPXIXIXYXYXYXYXYXYXYXYXYXYXYXYXYXYXYXYX",
"YXYXYXYXYXYXYXYXYXYXIXIXIXIXPXLXLXLXHXHXHXHXHXHXHXhX6.D HXHXHXHXHXHXHXHXHXHXHXLXLXLXPXIXIXYXYXYXYXYXYXYXYXYXYXYXYXYXYXYX",
"YXYXYXYXYXYXYXYXYXIXIXIXPXPXLXLXLXHXHXHXJXHXHXHXHXhXF F :XHXHXHXHXHXHXHXHXHXHXHXHXLXLXPXIXIXYXYXYXYXYXYXYXYXYXYXYXYXYXYX",
"YXYXYXYXYXYXYXYXYXIXIXIXLXLXLXHXHXHXHXHXGXJX0.: , d 9.6.v #.K.HXHXHXHXHXHXHXHXHXHXHXLXPXPXPXIXYXYXYXYXYXYXYXYXYXYXYXYXYX",
"YXYXYXYXYXYXYXYXIXIXPXPXLXLXHXHXHXHXHXGXa.* . . $ X : < < t I E.nXHXHXGXHXHXHXHXHXLXHXLXLXPXIXIXYXYXYXYXYXYXYXYXYXYXYXYX",
"YXYXYXYXYXYXYXIXIXPXPXLXHXHXLXHXHXHXy.  $ q i < , c k h 8 V ` i U cXGXHXGXHXGXHXHXHXHXHXLXLXPXIXIXYXYXYXYXYXYXYXYXYXYXYX",
"YXYXYXYXYXYXIXIXIXPXLXLXHXHXHXHXHX4 X # 8 x 8 * U I L j  .W ~ x l.8XbXGXGXGXGXHXHXHXHXHXHXLXLXPXIXIXYXYXYXYXYXYXYXYXYXYX",
"YXYXYXYXYXYXIXIXPXLXLXHXHXHXHXHXr.6 < < z n h k =.R @. .^ E _ ,.K. X4XGXGXGXGXGXHXHXHXHXHXHXLXPXPXIXYXYXYXYXYXYXYXYXYXYX",
"YXYXYXYXYXIXIXPXPXLXLXHXHXHXHX2X+ k a u #.A u P.0 [ C D.} +.x...{.[.6XVXGXGXGXGXGXHXHXHXHXLXHXLXLXIXIXYXYXYXYXYXYXYXYXYX",
"YXYXYXYXYXIXIXPXLXLXHXHXHXHXHXg $ K k v *.n h.W F.;.5.N.*.*.z.^ (.m.0XcXAXGXGXGXGXGXHXHXHXHXHXLXLXPXIXYXYXYXYXYXYXYXYXYX",
"YXYXYXYXIXIXPXLXLXHXHXHXHXHXHX: : n Y _ v.` (...-.c.'.<.S.XXD.;.|.E.wXNXVXGXGXGXGXGXHXGXHXHXHXHXLXLXPXIXYXYXYXYXYXYXYXYX",
"YXYXYXYXIXIXPXLXJXJXHXHXGXGXW.: * k V ` &XY.X.'.).XX{.XX{..X^ '.b.&X9XwXNXAXGXGXGXGXGXHXHXHXHXHXLXLXPXIXYXYXYXYXYXYXYXYX",
"YXYXYXIXIXPXPXLXHXHXHXHXHXGXd.> p 8 I W K.{.T.D.C.'.4X4X5XG.F.=XXX&X5X9XNXjXFXGXFXGXGXHXGXHXHXHXHXLXPXIXYXYXYXYXYXYXYXYX",
"YXYXYXIXIXPXLXLXHXHXHXHXGXGX8.> 6 z =.K x.1..XD.-XXX(.@X5XD.*X'.6XoX8X9X0XgXFXFXFXGXGXGXHXHXHXHXHXLXLXPXIXYXYXYXYXYXYXYX",
"YXYXYXIXIXLXLXHXHXHXHXHXHXFXH > n n W U ;.].{./.@X6X;X4X6X.XD.XXpX0X5X6X0XZXAXGXFXFXGXGXGXHXHXHXHXLXLXPXIXYXYXYXYXYXYXYX",
"YXYXYXIXIXLXLXHXHXHXHXHXHXFX_.y i h @./ '.9X'. X#X9X}.6XtX-X#X9X0X0X@X9X0XNXhXFXFXFXFXGXGXGXHXHXHXHXLXPXIXYXYXYXYXYXYXYX",
"YXYXIXIXIXLXLXHXHXHXGXHXHXFX3Xy j N o.A.XXrX6X+X>X@X#X0X@X[.7X9XdX9X>XuX0X0XcXGXFXFXFXGXGXHXFXHXHXHXLXLXPXIXYXYXYXYXYXYX",
"YXYXIXIXPXLXHXHXHXHXHXGXFXFXGXd h N ( D.:.-X{.`.6X4X4X#X#X.X0X9X0XpX5X6X0XNXcXFXFXFXFXGXGXGXHXHXHXHXHXLXPXIXYXYXYXYXYXYX",
"YXYXIXIXLXLXHXHXHXGXGXGXGXGXFXm p n &XV.D.-X4X(.6XrX#X{.@X0XiX0X0X0X9XwX9X0XbXFXFXFXFXFXGXGXGXHXHXHXLXLXPXIXYXYXYXYXYXYX",
"YXYXIXIXLXLXLXHXHXHXHXGXGXFXmXi.6 | ( T.@X8XwXV.+X#XiX0X9XgX0X0X0X0XwXNX9XiXhXFXFXFXFXFXGXGXGXHXHXHXHXLXLXIXYXYXYXYXYXYX",
"YXYXIXPXLXHXHXHXHXHXGXGXGXFXFXOXc M =.( |.7X0X0XXX#X0X9X6XpX9X0X0X0XiXzX7XNXbXFXkXFXFXFXGXGXGXHXHXHXHXLXLXIXYXYXYXYXYXYX",
"YXYXIXPXPXLXHXHXHXGXGXGXFXFXFXFXk./ ~ E.#X@X9XiXm.&X6X6X7X4XtX+X6X5X#X3X9XvXkXFXFXFXFXFXGXGXHXHXHXHXd.SXLXIXYXYXYXYXYXYX",
":X!.UXUXDXDXSXDXDXAXAXmXFXAXbXmX6X} ' =X9X0X9X9Xm.&X9X#X*X.XrX#X@X.X#X6XiXcXkXkXkXFXlXFXAXmXAXAXGXGXt.2 t.:XqXYXYXYXYXYX",
"7.F F F F F F F F F F F F F F F F X . @ 6 l E ] E _ X.X.>.F.(.F.>.F.,.'.iXF F F F F F F F F F F F F s.~.~.~.~.2X2X2XBXYX",
"6.G D F F F F F F F D F D D D D F 5 . o & & t z | <.D.'.&X0XdXeX{.1.) N a.D F F F D D D F F F F D D s.!.!.W.!.<X<X2XVXYX",
"YXYXIXIXLXLXHXJXHXHXFXGXGXGXFXmXkXW.. @ & o v 6 q B e 9 B Q ^ 0 e C ( v.tXFXmXmXmXFXGXFXHXGXFXHXHXHX7.3 p.qXIXYXYXYXYXYX",
"YXYXIXPXLXJXHXHXHXHXHXGXGXFXFXFXW.$ & j & 8 T u w Z _ q R r A b B ! Z ! ;XvXFXFXmXFXFXGXGXGXGXGXHXHXW.HXPXIXYXYXYXYXYXYX",
"YXYXIXIXPXJXHXHXHXFXFXGXGXFXFXFXJ p 7 6 j ^ M.% M +.W B O.r v C / ! ^ o.F.{.hXmXFXFXFXFXGXGXHXHXHXHXHXLXLXIXYXYXYXYXYXYX",
"YXYXIXIXPXLXHXHXHXHXHXFXGXFXFXW.y u n j ( m.n 8 O.%.) x.X.E K -.[ ,.%.( :.C..XFXmXFXFXFXGXGXGXHXHXHXHXLXPXIXYXYXYXYXYXYX",
"YXYXIXIXPXLXHXHXHXHXFXHXGXFXFX, 6 j 7 +.o.z.v Q c.&.>.F.B.T.:.v.N.T.*.( c.}.yXAXFXFXGXGXGXGXGXHXHXHXLXLXPXIXYXYXYXYXYXYX",
"YXYXIXIXUXLXHXHXHXHXHXFXHXGXJ j % W q o.M.M N / l.&.>.>.o.*.,.V.:.<.:.,.*.{.yXAXFXFXGXGXGXGXHXHXHXHXHXLXIXYXYXYXYXYXYXYX",
"YXYXYXIXIXLXHXLXHXHXHXHXFXFXJ 7 E z | >.L N R ] c.M.,.=.o.>.Z.C.}.eXx.Z.#X{.#XbXFXFXFXFXGXGXHXHXHXHXLXLXPXYXYXYXYXYXYXYX",
"YXYXYXIXIXPXLXHXHXHXHXHXHXFXf u u U X.$.Z Q ( | ] ].1.$.#X/.<.].S.7X'..X{.M.&XVXFXGXGXGXGXHXGXHXHXLXHXIXIXYXYXYXYXYXYXYX",
"YXYXYXIXIXPXLXLXHXHXHXHXHXFXf c 6 { A.T V ..1.%.x.uX5X1.).}.{.6XpX#X'.#X^.T.rXnXFXFXGXGXGXHXHXJXHXLXL.q.w.i.m 5 YXYXYXYX",
"YXYXYXYXPXPXLXLXHXHXHXHXHXFXi.L p E T q ..&.v.^.T.*X:.#X.XS.A.XX9XF.(.tXN 7X6XnXFXGXGXHXHXHXJXGXHXP sXUXYXMXn.g.g.w.:XYX",
"YXYXYXYXIXIXPXLXJXHXHXHXHXHXy.K % U.Z ~  .D.[.D.@XoX X/.<./..X4X9X(.6Xj.U.tX;XnXGXGXGXGXGXHXGXHXi.uXIXIXYXYXYXYXi.P.L.J.",
"YXYXYXYXIXIXPXLXJXHXHXHXHXHXhXw.j L ^ X.^ F.D.5XZ.{.XX1./.(.0X0X5X8X0XE 6X`.(.zXGXGXGXGXHXHXHX_.k.6XIXYXYXYXYXYXYXUX X9X",
"YXYXYXYXYXIXIXPXLXJXHXHXHXFXGX$Xj q v.O.B.D.qX8X.X9X9X'.4X6XzX0XdXtX=.R.9XrX4XbXGXGXHXHXHXHXjXP 3XLXIXYXYXYXYXYXYXYXYXYX",
"YXYXYXYXYXIXIXPXLXLXHXHXHXHXHXVXj.h l..X,.XX0X9XiX6X9X.X&XrXtX7X6XK.} 4X'.pXu.hXGXHXHXJXHXHXi.|.PXIXYXYXYXYXYXYXYXYXYXYX",
"YXYXYXYXYXYXIXIXPXLXLXHXHXHXHXHXH.l @.oXS.c.XX5X{.(. X{.D.-X;X@X`.{ #X8X9X Xc i.hXGXHXHXDX8.|.VXIXIXYXYXYXYXYXYXYXYXYXYX",
"YXYXYXYXYXYXYXIXIXLXLXHXLXHXHXHX8X#.! '. X3.(.uX#X.X9X5X(.:.[.-X}.$X4X.XgXi._.n.w.p.d.J.w.>XLXPXIXYXYXYXYXYXYXYXYXYXYXYX",
"YXYXYXYXYXYXYXIXIXPXLXLXHXHXHXHXDXe.b..X3XXX.XA.6XV.(.S.*XV.A.v.rX`.&XdXxXnXHXbX=X=XuXuXNXJXPXPXYXYXYXYXYXYXYXYXYXYXYXYX",
"YXYXYXYXYXYXYXYXIXIXPXLXLXLXHXHXJX0X`.3XiX4XK.{.&X>X].].B.@.,.S.{.>X9X6X5XHXHXHXHXSX:XcXLXPXIXIXYXYXYXYXYXYXYXYXYXYXYXYX",
"YXYXYXYXYXYXYXYXYXIXIXPXLXLXHXHXLXHX9XoX`.pXS.5X.XXX/.).'.{.,X{.0X0XK.yXVXHXHXHXHXHXHXLXLXPXIXYXYXYXYXYXYXYXYXYXYXYXYXYX",
"YXYXYXYXYXYXYXYXYXYXIXIXPXLXLXLXHXHXHXSXH.^ } x.6XpX;X>.V.M.5X8XL.s G.,XHXHXHXHXHXHXLXPXIXIXYXYXYXYXYXYXYXYXYXYXYXYXYXYX",
"YXYXYXYXYXYXYXYXYXYXYXIXIXIXLXLXHXLXHXHXZXH.} ` n B.x.{ C.>.8.> # k.MXAXHXJXHXJXLXLXPXIXIXYXYXYXYXYXYXYXYXYXYXYXYXYXYXYX",
"YXYXYXYXYXYXYXYXYXYXYXYXIXIXPXPXLXLXLXHXHXHX1XP g.{ |.(.v.l.j.@.].9XDXHXJXHXLXLXLXPXIXIXYXYXYXYXYXYXYXYXYXYXYXYXYXYXYXYX",
"YXYXYXYXYXYXYXYXYXYXYXYXYXIXIXIXPXPXLXLXLXLXHXHXHXAX6.D HXCXCX8XgXHXHXHXLXLXLXPXPXIXYXYXYXYXYXYXYXYXYXYXYXYXYXYXYXYXYXYX",
"YXYXYXYXYXYXYXYXYXYXYXYXYXYXYXIXIXPXPXLXLXLXLXLXLXBX6.D HXLXHXHXHXJXLXLXLXLXIXIXIXYXYXYXYXYXYXYXYXYXYXYXYXYXYXYXYXYXYXYX",
"YXYXYXYXYXYXYXYXYXYXYXYXYXYXYXYXYXIXIXIXPXPXLXLXPXBXF S LXLXLXLXPXPXPXPXIXIXIXYXYXYXYXYXYXYXYXYXYXYXYXYXYXYXYXYXYXYXYXYX",
"YXYXYXYXYXYXYXYXYXYXYXYXYXYXYXYXYXYXYXIXIXIXIXPXPXCXF D PXPXPXPXIXPXIXIXYXYXYXYXYXYXYXYXYXYXYXYXYXYXYXYXYXYXYXYXYXYXYXYX",
"YXYXYXYXYXYXYXYXYXYXYXYXYXYXYXYXYXYXYXYXYXYXIXIXIXdX6.G IXIXIXIXIXYXYXYXYXYXYXYXYXYXYXYXYXYXYXYXYXYXYXYXYXYXYXYXYXYXYXYX",
"YXYXYXYXYXYXYXYXYXYXYXYXYXYXYXYXYXYXYXYXYXYXYXYXYXf.F G YXYXYXYXYXYXYXYXYXYXYXYXYXYXYXYXYXYXYXYXYXYXYXYXYXYXYXYXYXYXYXYX",
"YXYXYXYXYXYXYXYXYXYXYXYXYXYXYXYXYXYXYXYXYXYXYXYXYXf.7.F YXYXYXYXYXYXYXYXYXYXYXYXYXYXYXYXYXYXYXYXYXYXYXYXYXYXYXYXYXYXYXYX"
};
