<?xml version="1.0" encoding="UTF-8" standalone="no"?>
<!-- Created with Inkscape (http://www.inkscape.org/) -->

<svg
   xmlns:dc="http://purl.org/dc/elements/1.1/"
   xmlns:cc="http://creativecommons.org/ns#"
   xmlns:rdf="http://www.w3.org/1999/02/22-rdf-syntax-ns#"
   xmlns:svg="http://www.w3.org/2000/svg"
   xmlns="http://www.w3.org/2000/svg"
   xmlns:xlink="http://www.w3.org/1999/xlink"
   xmlns:sodipodi="http://sodipodi.sourceforge.net/DTD/sodipodi-0.dtd"
   xmlns:inkscape="http://www.inkscape.org/namespaces/inkscape"
   width="115mm"
   height="115mm"
   id="svg2"
   sodipodi:version="0.32"
   inkscape:version="0.92.3 (2405546, 2018-03-11)"
   sodipodi:docname="latex.svg"
   inkscape:export-filename="/home/san/prog/ocaml/oplot/dune-version/share/images/latex_icon192.png"
   inkscape:export-xdpi="42.41"
   inkscape:export-ydpi="42.41"
   version="1.1">
  <sodipodi:namedview
     id="base"
     pagecolor="#ffffff"
     bordercolor="#666666"
     borderopacity="1.0"
     inkscape:pageopacity="0.0"
     inkscape:pageshadow="2"
     inkscape:zoom="1.0610016"
     inkscape:cx="317.4592"
     inkscape:cy="86.404895"
     inkscape:document-units="px"
     inkscape:current-layer="layer3"
     inkscape:window-width="3200"
     inkscape:window-height="1669"
     inkscape:window-x="0"
     inkscape:window-y="1200"
     showgrid="false"
     inkscape:window-maximized="1"
     fit-margin-top="0"
     fit-margin-left="0"
     fit-margin-right="0"
     fit-margin-bottom="0" />
  <defs
     id="defs4">
    <linearGradient
       id="linearGradient1900">
      <stop
         id="stop1902"
         offset="0"
         style="stop-color:#ffd5d5;stop-opacity:1;" />
      <stop
         style="stop-color:#ffefed;stop-opacity:1;"
         offset="0.86792451"
         id="stop3682" />
      <stop
         id="stop1904"
         offset="1"
         style="stop-color:white;stop-opacity:0.78688526;" />
    </linearGradient>
    <linearGradient
       id="linearGradient1975">
      <stop
         id="stop1977"
         offset="0"
         style="stop-color:black;stop-opacity:1;" />
      <stop
         style="stop-color:#ffe6ef;stop-opacity:1;"
         offset="0.5"
         id="stop1983" />
      <stop
         id="stop1979"
         offset="1"
         style="stop-color:black;stop-opacity:1;" />
    </linearGradient>
    <linearGradient
       id="linearGradient2945">
      <stop
         id="stop2947"
         offset="0"
         style="stop-color:black;stop-opacity:1;" />
      <stop
         style="stop-color:#ffdcff;stop-opacity:1;"
         offset="0.5"
         id="stop2953" />
      <stop
         id="stop2949"
         offset="1"
         style="stop-color:black;stop-opacity:1;" />
    </linearGradient>
    <linearGradient
       id="linearGradient2925">
      <stop
         style="stop-color:#d66086;stop-opacity:0.89344263;"
         offset="0"
         id="stop2943" />
      <stop
         style="stop-color:#00c100;stop-opacity:0.49803922;"
         offset="1"
         id="stop2937" />
    </linearGradient>
    <linearGradient
       gradientTransform="matrix(1.004328,0,0,0.125651,5.899946,313.7235)"
       gradientUnits="userSpaceOnUse"
       y2="399.63577"
       x2="161.16846"
       y1="510.93396"
       x1="161.16846"
       id="linearGradient2951"
       xlink:href="#linearGradient2945"
       inkscape:collect="always" />
    <linearGradient
       y2="399.63577"
       x2="161.16846"
       y1="510.93396"
       x1="161.16846"
       gradientTransform="matrix(2.367274,0,0,0.123919,-109.617,314.5124)"
       gradientUnits="userSpaceOnUse"
       id="linearGradient1947"
       xlink:href="#linearGradient2945"
       inkscape:collect="always" />
    <linearGradient
       y2="399.63577"
       x2="161.16846"
       y1="510.93396"
       x1="161.16846"
       gradientTransform="matrix(1.004328,0,0,0.125651,-667.5749,222.7171)"
       gradientUnits="userSpaceOnUse"
       id="linearGradient1955"
       xlink:href="#linearGradient2945"
       inkscape:collect="always" />
    <linearGradient
       y2="399.63577"
       x2="161.16846"
       y1="510.93396"
       x1="161.16846"
       gradientTransform="matrix(2.669523,0,0,0.123614,-808.3685,223.6445)"
       gradientUnits="userSpaceOnUse"
       id="linearGradient1963"
       xlink:href="#linearGradient2945"
       inkscape:collect="always" />
    <linearGradient
       gradientUnits="userSpaceOnUse"
       y2="164.21208"
       x2="427.89755"
       y1="287.41507"
       x1="427.89755"
       id="linearGradient1981"
       xlink:href="#linearGradient1975"
       inkscape:collect="always" />
    <linearGradient
       y2="164.21208"
       x2="427.89755"
       y1="287.41507"
       x1="427.89755"
       gradientUnits="userSpaceOnUse"
       id="linearGradient1987"
       xlink:href="#linearGradient1975"
       inkscape:collect="always" />
    <radialGradient
       gradientUnits="userSpaceOnUse"
       gradientTransform="matrix(1,0,0,1.031623,0,-11.44697)"
       r="193.72615"
       fy="361.97681"
       fx="281.80917"
       cy="361.97681"
       cx="281.80917"
       id="radialGradient2795"
       xlink:href="#linearGradient1900"
       inkscape:collect="always" />
    <linearGradient
       y2="399.63577"
       x2="161.16846"
       y1="510.93396"
       x1="161.16846"
       gradientTransform="matrix(2.558492,0,0,0.123724,-781.9914,223.5945)"
       gradientUnits="userSpaceOnUse"
       id="linearGradient1905"
       xlink:href="#linearGradient2945"
       inkscape:collect="always" />
  </defs>
  <metadata
     id="metadata7">
    <rdf:RDF>
      <cc:Work
         rdf:about="">
        <dc:format>image/svg+xml</dc:format>
        <dc:type
           rdf:resource="http://purl.org/dc/dcmitype/StillImage" />
        <dc:title></dc:title>
      </cc:Work>
    </rdf:RDF>
  </metadata>
  <g
     style="display:inline"
     id="layer2"
     inkscape:groupmode="layer"
     transform="translate(-81.185437,-130.96919)" />
  <g
     style="display:inline"
     id="layer1"
     inkscape:groupmode="layer"
     inkscape:label="Calque 1"
     transform="translate(-81.185437,-130.96919)" />
  <g
     style="display:inline"
     id="layer3"
     inkscape:groupmode="layer"
     transform="translate(-81.185437,-130.96919)">
    <g
       id="g6659"
       transform="translate(4.6039214,-0.38144789)">
      <ellipse
         ry="199.33995"
         rx="193.21365"
         cy="361.97681"
         cx="281.80917"
         style="display:inline;opacity:1;fill:url(#radialGradient2795);fill-opacity:1;fill-rule:evenodd;stroke:#ffffff;stroke-width:1.02499998;stroke-linecap:butt;stroke-miterlimit:4;stroke-dasharray:none;stroke-opacity:1"
         id="path1901"
         transform="matrix(0.939106,0,0,1.000079,22.34418,3.74128)"
         inkscape:transform-center-x="-6.5975395"
         inkscape:transform-center-y="-5.6550339" />
      <rect
         ry="0.58397108"
         y="364.09814"
         x="91.188126"
         height="13.664922"
         width="361.44949"
         id="rect1945"
         style="display:inline;opacity:1;fill:url(#linearGradient1947);fill-opacity:1;fill-rule:evenodd;stroke:#ffffff;stroke-width:0.55515832;stroke-linecap:butt;stroke-miterlimit:4;stroke-dasharray:none;stroke-opacity:1" />
      <path
         sodipodi:type="star"
         style="display:inline;opacity:1;fill:url(#linearGradient1987);fill-opacity:1;fill-rule:evenodd;stroke:#ffffff;stroke-width:1.02499998;stroke-linecap:butt;stroke-miterlimit:4;stroke-dasharray:none;stroke-opacity:1"
         id="path1985"
         sodipodi:sides="3"
         sodipodi:cx="437.32263"
         sodipodi:cy="225.78473"
         sodipodi:r1="28.290873"
         sodipodi:r2="14.145437"
         sodipodi:arg1="-3.1415927"
         sodipodi:arg2="-2.0943951"
         inkscape:flatsided="true"
         inkscape:rounded="1.77"
         inkscape:randomized="0"
         d="m 409.03176,225.78473 c 0,-86.73217 -32.67596,-67.8667 42.43631,-24.50062 75.11227,43.36609 75.11226,5.63514 0,49.00123 -75.11227,43.36609 -42.43631,62.23157 -42.43631,-24.50061 z"
         transform="matrix(0.596009,0,0,0.294833,202.0251,304.3618)" />
      <rect
         inkscape:transform-center-x="91.87661"
         inkscape:transform-center-y="-195.78666"
         transform="rotate(-90,3.5e-6,-4.9999999e-7)"
         ry="0.58305091"
         y="273.10245"
         x="-564.96594"
         height="13.643392"
         width="390.64566"
         id="rect1957"
         style="display:inline;opacity:1;fill:url(#linearGradient1905);fill-opacity:1;fill-rule:evenodd;stroke:#ffffff;stroke-width:0.5766896;stroke-linecap:butt;stroke-miterlimit:4;stroke-dasharray:none;stroke-opacity:1" />
      <path
         sodipodi:type="star"
         style="display:inline;opacity:1;fill:url(#linearGradient1981);fill-opacity:1;fill-rule:evenodd;stroke:#ffffff;stroke-width:1.02499998;stroke-linecap:butt;stroke-miterlimit:4;stroke-dasharray:none;stroke-opacity:1"
         id="path1973"
         sodipodi:sides="3"
         sodipodi:cx="437.32263"
         sodipodi:cy="225.78473"
         sodipodi:r1="28.290873"
         sodipodi:r2="14.145437"
         sodipodi:arg1="-3.1415927"
         sodipodi:arg2="-2.0943951"
         inkscape:flatsided="true"
         inkscape:rounded="1.77"
         inkscape:randomized="0"
         d="m 409.03176,225.78473 c 0,-86.73217 -32.67596,-67.8667 42.43631,-24.50062 75.11227,43.36609 75.11226,5.63514 0,49.00123 -75.11227,43.36609 -42.43631,62.23157 -42.43631,-24.50061 z"
         transform="matrix(0,-0.596009,0.294833,0,213.9482,434.6922)" />
      <g
         style="fill:#0000ff"
         transform="matrix(3.00146,0,0,3.00146,-879.07004,-716.84902)"
         id="g6597">
        <g
           style="font-style:normal;font-variant:normal;font-weight:normal;font-stretch:normal;letter-spacing:normal;word-spacing:normal;text-anchor:start;fill:#0000ff;fill-opacity:1;fill-rule:evenodd;stroke:#000000;stroke-linecap:butt;stroke-linejoin:miter;stroke-miterlimit:10.43299961;stroke-dasharray:none;stroke-dashoffset:0;stroke-opacity:1"
           id="content"
           transform="matrix(1.1338583,0,0,-1.1338583,-198.4252,841.88976)"
           xml:space="preserve"
           stroke-miterlimit="10.433"
           font-style="normal"
           font-variant="normal"
           font-weight="normal"
           font-stretch="normal"
           font-size-adjust="none"
           letter-spacing="normal"
           word-spacing="normal"><path
             style="fill:#0000ff;stroke-width:0"
             inkscape:connector-curvature="0"
             d="m 484.52,419.06 h -1.25 c -0.55,-5.1 -1.25,-11.31 -10.02,-11.31 h -4.07 c -2.35,0 -2.46,0.34 -2.46,1.98 v 26.56 c 0,1.69 0,2.39 4.74,2.39 h 1.65 v 1.55 c -1.79,-0.16 -6.32,-0.16 -8.37,-0.16 -1.94,0 -5.83,0 -7.58,0.16 v -1.55 h 1.2 c 3.83,0 3.94,-0.54 3.94,-2.34 v -26.25 c 0,-1.8 -0.11,-2.34 -3.94,-2.34 h -1.2 v -1.55 h 25.95 z"
             id="path6586" /><path
             style="fill:#0000ff;stroke-width:0"
             inkscape:connector-curvature="0"
             d="m 484.36,440.45 -0.02,0.05 -0.02,0.04 -0.02,0.05 -0.01,0.05 -0.02,0.04 -0.02,0.04 -0.02,0.04 -0.02,0.04 -0.01,0.04 -0.02,0.03 -0.02,0.04 -0.02,0.03 -0.02,0.03 -0.03,0.03 -0.02,0.02 -0.03,0.03 -0.02,0.02 -0.03,0.02 -0.03,0.03 -0.03,0.01 -0.03,0.02 -0.03,0.02 -0.04,0.01 -0.04,0.01 -0.04,0.02 -0.04,0.01 h -0.05 l -0.05,0.01 -0.05,0.01 h -0.05 -0.06 -0.06 c -0.67,0 -0.77,-0.25 -0.98,-0.79 l -8.05,-20.4 c -0.34,-0.87 -0.94,-2.4 -4.08,-2.4 v -1.25 c 1.19,0.11 2.41,0.14 3.6,0.14 1.39,0 3.96,-0.14 4.18,-0.14 v 1.25 c -1.53,0 -2.51,0.7 -2.51,1.67 0,0.28 0.03,0.36 0.17,0.7 l 1.67,4.28 0.5,1.27 4.45,11.31 4.46,-11.31 h -8.91 l -0.5,-1.27 h 9.91 l 2.01,-5.07 c 0.07,-0.19 0.17,-0.43 0.17,-0.6 0,-0.98 -1.87,-0.98 -2.82,-0.98 v -1.25 c 1.75,0.06 3.98,0.14 5.2,0.14 1.64,0 4.25,-0.11 4.62,-0.14 v 1.25 h -0.68 c -2.35,0 -2.58,0.36 -2.97,1.33 z"
             id="path6588" /><path
             style="fill:#0000ff;stroke-width:0"
             inkscape:connector-curvature="0"
             d="m 523.75,439.93 h -30.46 l -0.93,-11.22 h 1.25 c 0.68,8.04 1.43,9.68 8.95,9.68 0.9,0 2.2,0 2.7,-0.11 1.05,-0.19 1.05,-0.74 1.05,-1.89 v -26.25 c 0,-1.71 0,-2.39 -5.24,-2.39 h -2 v -1.55 c 2.05,0.16 7.13,0.16 9.43,0.16 2.29,0 7.42,0 9.47,-0.16 v 1.55 h -2 c -5.24,0 -5.24,0.68 -5.24,2.39 v 26.25 c 0,1 0,1.7 0.91,1.89 0.54,0.11 1.89,0.11 2.84,0.11 7.52,0 8.27,-1.64 8.95,-9.68 h 1.25 z"
             id="path6590" /><path
             style="fill:#0000ff;stroke-width:0"
             inkscape:connector-curvature="0"
             d="m 525.06,399.29 v -0.17 -0.15 -0.15 l -0.01,-0.15 -0.01,-0.13 -0.01,-0.13 -0.02,-0.13 -0.02,-0.12 -0.03,-0.11 -0.04,-0.1 -0.04,-0.1 -0.05,-0.09 -0.06,-0.09 -0.07,-0.08 -0.08,-0.08 -0.09,-0.07 -0.1,-0.06 -0.11,-0.06 -0.06,-0.03 -0.07,-0.03 -0.07,-0.02 -0.07,-0.03 -0.07,-0.02 -0.08,-0.02 -0.08,-0.02 -0.09,-0.02 -0.08,-0.02 -0.1,-0.02 -0.09,-0.02 -0.1,-0.01 -0.11,-0.02 -0.11,-0.01 -0.11,-0.01 -0.12,-0.01 -0.12,-0.01 -0.13,-0.01 -0.13,-0.01 -0.14,-0.01 h -0.14 l -0.14,-0.01 h -0.15 l -0.16,-0.01 h -0.16 -0.17 -0.17 -0.18 -1.2 v -1.55 h 28.75 l 2.1,12.86 h -1.25 c -1.24,-7.67 -2.4,-11.31 -10.96,-11.31 h -6.62 c -2.35,0 -2.46,0.34 -2.46,1.98 v 13.31 h 4.49 c 4.84,0 5.39,-1.59 5.39,-5.83 h 1.23 v 13.21 h -1.23 c 0,-4.3 -0.55,-5.83 -5.39,-5.83 h -4.49 v 11.95 c 0,1.64 0.11,1.99 2.46,1.99 h 6.42 c 7.62,0 8.97,-2.74 9.76,-9.66 h 1.26 l -1.41,11.2 h -28.05 v -1.54 h 1.2 c 3.83,0 3.94,-0.55 3.94,-2.33 z"
             id="path6592" /><path
             style="fill:#0000ff;stroke-width:0"
             inkscape:connector-curvature="0"
             d="m 566.03,425.43 6.83,10.02 c 1.09,1.59 2.78,3.19 7.22,3.23 v 1.55 c -1.94,-0.05 -4.28,-0.16 -5.53,-0.16 -1.99,0 -4.39,0 -6.38,0.16 v -1.55 c 1.99,-0.04 3.1,-1.14 3.1,-2.29 0,-0.5 -0.11,-0.6 -0.46,-1.14 l -5.69,-8.43 -6.42,9.61 c -0.09,0.16 -0.34,0.57 -0.34,0.75 0,0.61 1.09,1.46 3.23,1.5 v 1.55 c -1.75,-0.16 -5.37,-0.16 -7.28,-0.16 -1.53,0 -4.62,0.05 -6.47,0.16 v -1.55 h 0.96 c 2.73,0 3.68,-0.34 4.62,-1.75 l 9.17,-13.84 -8.17,-12.06 c -0.7,-0.99 -2.19,-3.28 -7.22,-3.28 v -1.55 c 1.78,0.05 3.88,0.16 5.52,0.16 1.84,0 4.59,0 6.39,-0.16 v 1.55 c -2.3,0.04 -3.14,1.39 -3.14,2.29 0,0.44 0.14,0.64 0.5,1.19 l 7.06,10.47 7.88,-11.91 c 0.11,-0.2 0.25,-0.4 0.25,-0.54 0,-0.61 -1.1,-1.46 -3.24,-1.5 v -1.55 c 1.74,0.16 5.38,0.16 7.27,0.16 2.09,0 4.39,-0.07 6.48,-0.16 v 1.55 h -0.95 c -2.58,0 -3.63,0.25 -4.67,1.79 z"
             id="path6594" /></g>      </g>
    </g>
  </g>
</svg>
